<?xml version="1.0" encoding="utf-8"?>
<!-- Generator: Adobe Illustrator 16.0.4, SVG Export Plug-In . SVG Version: 6.00 Build 0)  -->
<!DOCTYPE svg PUBLIC "-//W3C//DTD SVG 1.1//EN" "http://www.w3.org/Graphics/SVG/1.1/DTD/svg11.dtd">
<svg version="1.1" xmlns="http://www.w3.org/2000/svg" xmlns:xlink="http://www.w3.org/1999/xlink" x="0px" y="0px" width="93.78px"
	 height="93.972px" viewBox="0 0 93.78 93.972" enable-background="new 0 0 93.78 93.972" xml:space="preserve">
<g id="Development" display="none">
	<g id="monitor_2_" display="inline">
		<path fill="#FFFFFF" d="M79.127,12.519l-64.475,0.013c-1.62,0-2.93,1.389-2.93,3.12v43.859c0,1.731,1.311,3.133,2.93,3.133h64.475
			c1.62,0,2.931-1.401,2.931-3.133V15.651C82.058,13.92,80.747,12.519,79.127,12.519z M79.127,59.523H14.652V15.651h64.475V59.523z"
			/>
		<path fill="#FFFFFF" d="M84.988,0H8.792C3.932,0,0,4.207,0,9.398v62.655c0,5.182,3.921,9.381,8.763,9.396h29.334v3.809
			L19.804,87.8c-1.305,0.351-2.221,1.602-2.221,3.039c0,1.73,1.311,3.133,2.931,3.133h52.752c1.62,0,2.931-1.402,2.931-3.133
			c0-1.438-0.915-2.688-2.221-3.039l-18.293-2.542v-3.809h29.333c4.843-0.015,8.765-4.214,8.765-9.396V9.398
			C93.78,4.207,89.842,0,84.988,0z M87.919,72.054c0,1.729-1.317,3.133-2.931,3.133H58.613H35.167H8.792
			c-1.62,0-2.931-1.404-2.931-3.133V9.398c0-1.729,1.311-3.133,2.931-3.133h76.197c1.613,0,2.931,1.404,2.931,3.133V72.054z"/>
	</g>
</g>
<g id="Photography" display="none">
	<g id="photo_1_" display="inline">
		<path fill="#FFFFFF" d="M81.275,0H12.504C5.599,0,0,5.26,0,11.747v70.479c0,6.486,5.599,11.746,12.504,11.746h68.771
			c6.906,0,12.505-5.26,12.505-11.746V11.747C93.78,5.26,88.182,0,81.275,0z M87.528,82.226c0,3.234-2.809,5.873-6.253,5.873H12.504
			c-3.446,0-6.252-2.639-6.252-5.873V11.747c0-3.241,2.806-5.874,6.252-5.874h68.771c3.444,0,6.253,2.633,6.253,5.874V82.226z"/>
		<path fill="#FFFFFF" d="M78.149,11.747H15.63c-1.728,0-3.126,1.313-3.126,2.937v52.859c0,1.623,1.398,2.937,3.126,2.937h62.52
			c1.729,0,3.126-1.313,3.126-2.937V14.683C81.275,13.06,79.878,11.747,78.149,11.747z M78.149,14.683v40.728L67.99,45.042
			c-0.598-0.631-1.447-0.992-2.344-0.992c-0.898,0-1.753,0.361-2.345,0.992l-8.138,8.667L30.478,27.422
			c-0.595-0.631-1.447-0.992-2.345-0.992c-0.897,0-1.749,0.361-2.345,0.992L15.63,38.428V14.683H78.149z M15.63,42.874
			l12.503-13.507l25.215,26.849l1.813,1.933l8.634,9.395H15.63V42.874z M67.96,67.542L57.247,55.928l8.399-8.942l12.503,12.859
			v7.697H67.96z"/>
		<path fill="#FFFFFF" d="M59.394,38.176c5.179,0,9.378-3.946,9.378-8.81c0-4.87-4.199-8.81-9.378-8.81
			c-5.181,0-9.379,3.94-9.379,8.81C50.015,34.23,54.213,38.176,59.394,38.176z M59.394,23.493c3.444,0,6.253,2.632,6.253,5.873
			c0,3.235-2.809,5.873-6.253,5.873c-3.448,0-6.253-2.638-6.253-5.873C53.141,26.125,55.945,23.493,59.394,23.493z"/>
	</g>
</g>
<g id="Design" display="none">
	<path id="pen_2_" display="inline" fill="#FFFFFF" d="M86.03,7.609C81.217,2.765,74.878,0,68.63,0
		c-5.27,0-10.122,1.97-13.666,5.536L40.719,20c-0.04,0.04-0.091,0.069-0.137,0.112c-0.023,0.023-0.035,0.055-0.057,0.078
		l0.005,0.006L10.294,50.891c-1.392,1.394-2.403,3.133-2.963,5.029L0.458,81.012C0.449,81.08,0,83.054,0,84.053
		c0,5.699,4.593,10.322,10.258,10.322c1.125,0,3.307-0.541,3.387-0.553l24.811-6.572c1.887-0.564,3.601-1.59,4.99-2.996
		l44.671-45.367C96.24,30.69,95.325,16.958,86.03,7.609z M46.87,70.18c-0.24-2.664-0.983-5.273-2.103-7.751l27.67-27.879
		c1.691,5.386,0.824,11.019-2.886,14.757c-0.023,0.023-0.052,0.038-0.074,0.061l0.039,0.038L46.898,72.377
		C46.904,71.646,46.938,70.925,46.87,70.18z M43.297,59.739c-1.091-1.809-2.332-3.552-3.869-5.098
		c-1.789-1.804-3.841-3.212-5.979-4.401l27.896-28.109c2.188,0.979,4.285,2.373,6.139,4.239c1.582,1.59,2.806,3.37,3.748,5.222
		L43.297,59.739z M30.693,48.846c-2.709-1.1-5.55-1.728-8.396-1.765L44.841,24.19c3.453-3.393,8.478-4.369,13.428-3.131
		L30.693,48.846z M12.199,88.103c-0.32,0.074-1.312,0.328-1.987,0.374c-2.406-0.026-4.358-1.999-4.358-4.424
		c0.034-0.492,0.231-1.345,0.297-1.659l3.082-11.249c3.344-0.093,6.945,1.221,9.775,4.078c2.875,2.895,4.225,6.592,4.078,9.999
		L12.199,88.103z M25.972,84.456c-0.068-3.954-1.669-8.073-4.894-11.316c-3.049-3.078-7.039-4.853-11.02-5.011l2.915-10.64
		c0.211-0.708,0.629-1.405,1.144-2.019c5.871-4.233,14.902-2.983,21.173,3.341c6.637,6.685,7.66,16.475,2.549,22.32
		c-0.337,0.179-0.68,0.352-1.051,0.464L25.972,84.456z M83.973,34.72l-4.927,5.005c0-0.665,0.08-1.308,0.017-1.987
		c-0.515-5.706-3.155-11.224-7.442-15.538c-4.768-4.807-11.089-7.566-17.348-7.583l4.848-4.925c2.424-2.439,5.806-3.793,9.51-3.793
		c4.71,0,9.546,2.146,13.268,5.884c3.492,3.514,5.572,7.877,5.87,12.292C88.042,28.196,86.692,31.975,83.973,34.72z"/>
</g>
<g id="Paintball" display="none">
	<g display="inline">
		<path id="world_1_" fill="#FFFFFF" d="M46.89,6.05C69.408,6.05,87.73,24.37,87.73,46.89c0,22.52-18.322,40.839-40.841,40.839
			S6.05,69.409,6.05,46.89C6.05,24.37,24.371,6.05,46.89,6.05 M46.89,0C20.993,0,0,20.993,0,46.89
			c0,25.896,20.993,46.89,46.89,46.89c25.898,0,46.891-20.993,46.891-46.89C93.78,20.993,72.788,0,46.89,0L46.89,0z"/>
		<path fill="#FFFFFF" d="M19.419,46.89c0-19.516,13.354-35.569,30.495-37.59c-1.204-0.145-2.422-0.225-3.659-0.225
			c-18.864,0-34.155,16.931-34.155,37.814c0,20.883,15.291,37.813,34.155,37.813c1.236,0,2.455-0.079,3.659-0.224
			C32.773,82.458,19.419,66.405,19.419,46.89z"/>
	</g>
</g>
<g id="Branding" display="none">
	<g id="bulb_2_" display="inline">
		<path fill="#FFFFFF" d="M46.891,0C29.065,0,14.616,14.449,14.616,32.273c0,11.828,10.822,24.359,14.761,35.368
			c5.875,16.42,5.228,26.245,17.514,26.245c12.469,0,11.632-9.782,17.511-26.177c3.955-11.031,14.762-23.701,14.762-35.437
			C79.164,14.449,64.713,0,46.891,0z M54.495,79.732l-14.549,1.819c-0.516-1.504-1.077-3.264-1.753-5.556
			c-0.006-0.028-0.017-0.063-0.023-0.092l18.154-2.27c-0.258,0.868-0.532,1.779-0.773,2.594
			C55.166,77.546,54.822,78.692,54.495,79.732z M37.315,73.079c-0.533-1.765-1.134-3.627-1.805-5.599h22.784
			c-0.361,1.055-0.723,2.109-1.031,3.106L37.315,73.079z M46.891,88.019c-2.974,0-4.344-0.341-5.862-3.668l12.435-1.556
			C51.664,87.646,50.352,88.019,46.891,88.019z M60.598,61.613H33.214c-1.461-3.166-3.214-6.338-4.945-9.438
			c-3.828-6.851-7.785-13.936-7.785-19.901c0-14.561,11.845-26.406,26.407-26.406c14.561,0,26.406,11.845,26.406,26.406
			c0,5.919-3.96,13.045-7.793,19.936C63.79,55.301,62.048,58.461,60.598,61.613z"/>
		<path fill="#FFFFFF" d="M46.891,14.67c-9.708,0-17.605,7.896-17.605,17.604c0,0.811,0.656,1.467,1.467,1.467
			s1.467-0.656,1.467-1.467c0-8.088,6.58-14.67,14.671-14.67c0.808,0,1.467-0.656,1.467-1.467S47.699,14.67,46.891,14.67z"/>
	</g>
</g>
<g id="Location" display="none">
	<g id="location_2_" display="inline">
		<path fill-rule="evenodd" clip-rule="evenodd" fill="#FFFFFF" d="M46.894,52.007c9.696,0,17.583-7.888,17.583-17.583
			c0-9.696-7.887-17.584-17.583-17.584s-17.585,7.888-17.585,17.584C29.309,44.119,37.197,52.007,46.894,52.007z M46.894,19.77
			c8.082,0,14.653,6.571,14.653,14.653s-6.571,14.653-14.653,14.653s-14.654-6.571-14.654-14.653S38.812,19.77,46.894,19.77z"/>
		<path fill-rule="evenodd" clip-rule="evenodd" fill="#FFFFFF" d="M46.888,0C27.494,0,11.719,15.58,11.719,35.173
			c0,20.518,17.586,41.501,30.406,56.248c0.052,0.058,2.106,2.358,4.654,2.358c0.005,0,0.211,0,0.223,0
			c2.542,0,4.602-2.301,4.648-2.358c12.826-14.747,30.41-35.73,30.41-56.248C82.061,15.58,66.285,0,46.888,0z M47.231,87.574
			c-0.063,0.058-0.241,0.192-0.395,0.289c-0.029-0.083-0.246-0.254-0.378-0.392C35.715,75.114,17.581,54.259,17.581,35.173
			c0-16.161,13.15-29.312,29.307-29.312c16.165,0,29.312,13.15,29.312,29.312C76.199,54.259,58.066,75.114,47.231,87.574z"/>
	</g>
</g>
<g id="Arrow_Left">
	<path fill="#FFFFFF" d="M39.031,86.003c2.375,2.378,6.247,2.378,8.63,0c2.376-2.373,2.376-6.258,0-8.631l-24.279-24.28h64.105
		c3.353,0,6.119-2.739,6.119-6.107c0-3.356-2.741-6.113-6.119-6.113H23.383l24.279-24.273c2.376-2.375,2.376-6.254,0-8.632
		c-1.192-1.188-2.751-1.781-4.326-1.781c-1.574,0-3.106,0.594-4.318,1.781L0,46.984L39.031,86.003z"/>
</g>
<g id="Arrow_Right" display="none">
	<path display="inline" fill="#FFFFFF" d="M54.58,7.966c-2.383-2.375-6.247-2.375-8.631,0c-2.384,2.378-2.384,6.26,0,8.635
		l24.278,24.286H6.104C2.734,40.887,0,43.632,0,46.994c0,3.362,2.734,6.108,6.104,6.108h64.123L45.946,77.387
		c-2.385,2.377-2.385,6.253,0,8.621c1.192,1.193,2.752,1.779,4.316,1.779c1.565,0,3.123-0.586,4.326-1.779l39.022-39.014
		L54.58,7.966z"/>
</g>
</svg>
