<?xml version="1.0" encoding="utf-8"?>
<!-- Generator: Adobe Illustrator 16.0.4, SVG Export Plug-In . SVG Version: 6.00 Build 0)  -->
<!DOCTYPE svg PUBLIC "-//W3C//DTD SVG 1.1//EN" "http://www.w3.org/Graphics/SVG/1.1/DTD/svg11.dtd">
<svg version="1.1" xmlns="http://www.w3.org/2000/svg" xmlns:xlink="http://www.w3.org/1999/xlink" x="0px" y="0px" viewBox="0 0 93.78 93.972" enable-background="new 0 0 93.78 93.972" xml:space="preserve">
<g id="Development">
	<g id="monitor_2_">
		<path fill="#FFFFFF" d="M79.127,12.519l-64.475,0.013c-1.62,0-2.93,1.389-2.93,3.12v43.859c0,1.731,1.311,3.133,2.93,3.133h64.475
			c1.62,0,2.931-1.401,2.931-3.133V15.651C82.058,13.92,80.747,12.519,79.127,12.519z M79.127,59.523H14.652V15.651h64.475V59.523z"
			/>
		<path fill="#FFFFFF" d="M84.988,0H8.792C3.932,0,0,4.207,0,9.398v62.655c0,5.182,3.921,9.381,8.763,9.396h29.334v3.809
			L19.804,87.8c-1.305,0.351-2.221,1.602-2.221,3.039c0,1.73,1.311,3.133,2.931,3.133h52.752c1.62,0,2.931-1.402,2.931-3.133
			c0-1.438-0.915-2.688-2.221-3.039l-18.293-2.542v-3.809h29.333c4.843-0.015,8.765-4.214,8.765-9.396V9.398
			C93.78,4.207,89.842,0,84.988,0z M87.919,72.054c0,1.729-1.317,3.133-2.931,3.133H58.613H35.167H8.792
			c-1.62,0-2.931-1.404-2.931-3.133V9.398c0-1.729,1.311-3.133,2.931-3.133h76.197c1.613,0,2.931,1.404,2.931,3.133V72.054z"/>
	</g>
</g>
</svg>
