<?xml version="1.0" encoding="utf-8"?>
<!-- Generator: Adobe Illustrator 16.0.4, SVG Export Plug-In . SVG Version: 6.00 Build 0)  -->
<!DOCTYPE svg PUBLIC "-//W3C//DTD SVG 1.1//EN" "http://www.w3.org/Graphics/SVG/1.1/DTD/svg11.dtd">
<svg version="1.1" xmlns="http://www.w3.org/2000/svg" xmlns:xlink="http://www.w3.org/1999/xlink" x="0px" y="0px" viewBox="0 0 93.78 93.972" enable-background="new 0 0 93.78 93.972" xml:space="preserve">
<g id="Photography">
	<g id="photo_1_">
		<path fill="#FFFFFF" d="M81.275,0H12.504C5.599,0,0,5.26,0,11.747v70.479c0,6.486,5.599,11.746,12.504,11.746h68.771
			c6.906,0,12.505-5.26,12.505-11.746V11.747C93.78,5.26,88.182,0,81.275,0z M87.528,82.226c0,3.234-2.809,5.873-6.253,5.873H12.504
			c-3.446,0-6.252-2.639-6.252-5.873V11.747c0-3.241,2.806-5.874,6.252-5.874h68.771c3.444,0,6.253,2.633,6.253,5.874V82.226z"/>
		<path fill="#FFFFFF" d="M78.149,11.747H15.63c-1.728,0-3.126,1.313-3.126,2.937v52.859c0,1.623,1.398,2.937,3.126,2.937h62.52
			c1.729,0,3.126-1.313,3.126-2.937V14.683C81.275,13.06,79.878,11.747,78.149,11.747z M78.149,14.683v40.728L67.99,45.042
			c-0.598-0.631-1.447-0.992-2.344-0.992c-0.898,0-1.753,0.361-2.345,0.992l-8.138,8.667L30.478,27.422
			c-0.595-0.631-1.447-0.992-2.345-0.992c-0.897,0-1.749,0.361-2.345,0.992L15.63,38.428V14.683H78.149z M15.63,42.874
			l12.503-13.507l25.215,26.849l1.813,1.933l8.634,9.395H15.63V42.874z M67.96,67.542L57.247,55.928l8.399-8.942l12.503,12.859
			v7.697H67.96z"/>
		<path fill="#FFFFFF" d="M59.394,38.176c5.179,0,9.378-3.946,9.378-8.81c0-4.87-4.199-8.81-9.378-8.81
			c-5.181,0-9.379,3.94-9.379,8.81C50.015,34.23,54.213,38.176,59.394,38.176z M59.394,23.493c3.444,0,6.253,2.632,6.253,5.873
			c0,3.235-2.809,5.873-6.253,5.873c-3.448,0-6.253-2.638-6.253-5.873C53.141,26.125,55.945,23.493,59.394,23.493z"/>
	</g>
</g>
</svg>
