<?xml version="1.0" encoding="utf-8"?>
<!-- Generator: Adobe Illustrator 16.0.4, SVG Export Plug-In . SVG Version: 6.00 Build 0)  -->
<!DOCTYPE svg PUBLIC "-//W3C//DTD SVG 1.1//EN" "http://www.w3.org/Graphics/SVG/1.1/DTD/svg11.dtd">
<svg version="1.1" xmlns="http://www.w3.org/2000/svg" xmlns:xlink="http://www.w3.org/1999/xlink" x="0px" y="0px" viewBox="0 0 93.78 93.972" enable-background="new 0 0 93.78 93.972" xml:space="preserve">
<g id="Branding">
	<g id="bulb_2_">
		<path fill="#FFFFFF" d="M46.891,0C29.065,0,14.616,14.449,14.616,32.273c0,11.828,10.822,24.359,14.761,35.368
			c5.875,16.42,5.228,26.245,17.514,26.245c12.469,0,11.632-9.782,17.511-26.177c3.955-11.031,14.762-23.701,14.762-35.437
			C79.164,14.449,64.713,0,46.891,0z M54.495,79.732l-14.549,1.819c-0.516-1.504-1.077-3.264-1.753-5.556
			c-0.006-0.028-0.017-0.063-0.023-0.092l18.154-2.27c-0.258,0.868-0.532,1.779-0.773,2.594
			C55.166,77.546,54.822,78.692,54.495,79.732z M37.315,73.079c-0.533-1.765-1.134-3.627-1.805-5.599h22.784
			c-0.361,1.055-0.723,2.109-1.031,3.106L37.315,73.079z M46.891,88.019c-2.974,0-4.344-0.341-5.862-3.668l12.435-1.556
			C51.664,87.646,50.352,88.019,46.891,88.019z M60.598,61.613H33.214c-1.461-3.166-3.214-6.338-4.945-9.438
			c-3.828-6.851-7.785-13.936-7.785-19.901c0-14.561,11.845-26.406,26.407-26.406c14.561,0,26.406,11.845,26.406,26.406
			c0,5.919-3.96,13.045-7.793,19.936C63.79,55.301,62.048,58.461,60.598,61.613z"/>
		<path fill="#FFFFFF" d="M46.891,14.67c-9.708,0-17.605,7.896-17.605,17.604c0,0.811,0.656,1.467,1.467,1.467
			s1.467-0.656,1.467-1.467c0-8.088,6.58-14.67,14.671-14.67c0.808,0,1.467-0.656,1.467-1.467S47.699,14.67,46.891,14.67z"/>
	</g>
</g>
</svg>
