<?xml version="1.0" encoding="utf-8"?>
<!-- Generator: Adobe Illustrator 16.0.4, SVG Export Plug-In . SVG Version: 6.00 Build 0)  -->
<!DOCTYPE svg PUBLIC "-//W3C//DTD SVG 1.1//EN" "http://www.w3.org/Graphics/SVG/1.1/DTD/svg11.dtd">
<svg version="1.1" xmlns="http://www.w3.org/2000/svg" xmlns:xlink="http://www.w3.org/1999/xlink" x="0px" y="0px" viewBox="0 0 93.78 93.972" enable-background="new 0 0 93.78 93.972" xml:space="preserve">
<g id="Design">
	<path id="pen_2_" fill="#FFFFFF" d="M86.03,7.609C81.217,2.765,74.878,0,68.63,0c-5.27,0-10.122,1.97-13.666,5.536L40.719,20
		c-0.04,0.04-0.091,0.069-0.137,0.112c-0.023,0.023-0.035,0.055-0.057,0.078l0.005,0.006L10.294,50.891
		c-1.392,1.394-2.403,3.133-2.963,5.029L0.458,81.012C0.449,81.08,0,83.054,0,84.053c0,5.699,4.593,10.322,10.258,10.322
		c1.125,0,3.307-0.541,3.387-0.553l24.811-6.572c1.887-0.564,3.601-1.59,4.99-2.996l44.671-45.367
		C96.24,30.69,95.325,16.958,86.03,7.609z M46.87,70.18c-0.24-2.664-0.983-5.273-2.103-7.751l27.67-27.879
		c1.691,5.386,0.824,11.019-2.886,14.757c-0.023,0.023-0.052,0.038-0.074,0.061l0.039,0.038L46.898,72.377
		C46.904,71.646,46.938,70.925,46.87,70.18z M43.297,59.739c-1.091-1.809-2.332-3.552-3.869-5.098
		c-1.789-1.804-3.841-3.212-5.979-4.401l27.896-28.109c2.188,0.979,4.285,2.373,6.139,4.239c1.582,1.59,2.806,3.37,3.748,5.222
		L43.297,59.739z M30.693,48.846c-2.709-1.1-5.55-1.728-8.396-1.765L44.841,24.19c3.453-3.393,8.478-4.369,13.428-3.131
		L30.693,48.846z M12.199,88.103c-0.32,0.074-1.312,0.328-1.987,0.374c-2.406-0.026-4.358-1.999-4.358-4.424
		c0.034-0.492,0.231-1.345,0.297-1.659l3.082-11.249c3.344-0.093,6.945,1.221,9.775,4.078c2.875,2.895,4.225,6.592,4.078,9.999
		L12.199,88.103z M25.972,84.456c-0.068-3.954-1.669-8.073-4.894-11.316c-3.049-3.078-7.039-4.853-11.02-5.011l2.915-10.64
		c0.211-0.708,0.629-1.405,1.144-2.019c5.871-4.233,14.902-2.983,21.173,3.341c6.637,6.685,7.66,16.475,2.549,22.32
		c-0.337,0.179-0.68,0.352-1.051,0.464L25.972,84.456z M83.973,34.72l-4.927,5.005c0-0.665,0.08-1.308,0.017-1.987
		c-0.515-5.706-3.155-11.224-7.442-15.538c-4.768-4.807-11.089-7.566-17.348-7.583l4.848-4.925c2.424-2.439,5.806-3.793,9.51-3.793
		c4.71,0,9.546,2.146,13.268,5.884c3.492,3.514,5.572,7.877,5.87,12.292C88.042,28.196,86.692,31.975,83.973,34.72z"/>
</g>
</svg>
