<?xml version="1.0" encoding="utf-8"?>
<!-- Generator: Adobe Illustrator 16.0.4, SVG Export Plug-In . SVG Version: 6.00 Build 0)  -->
<!DOCTYPE svg PUBLIC "-//W3C//DTD SVG 1.1//EN" "http://www.w3.org/Graphics/SVG/1.1/DTD/svg11.dtd">
<svg version="1.1" xmlns="http://www.w3.org/2000/svg" xmlns:xlink="http://www.w3.org/1999/xlink" x="0px" y="0px" width="93.78px"
	 height="93.972px" viewBox="0 0 93.78 93.972" enable-background="new 0 0 93.78 93.972" xml:space="preserve">
<g id="Development" display="none">
	<g id="monitor_2_" display="inline">
		<path fill="#FFFFFF" d="M79.127,12.519l-64.475,0.013c-1.62,0-2.93,1.389-2.93,3.12v43.859c0,1.731,1.311,3.133,2.93,3.133h64.475
			c1.62,0,2.931-1.401,2.931-3.133V15.651C82.058,13.92,80.747,12.519,79.127,12.519z M79.127,59.523H14.652V15.651h64.475V59.523z"
			/>
		<path fill="#FFFFFF" d="M84.988,0H8.792C3.932,0,0,4.207,0,9.398v62.655c0,5.182,3.921,9.381,8.763,9.396h29.334v3.809
			L19.804,87.8c-1.305,0.351-2.221,1.602-2.221,3.039c0,1.73,1.311,3.133,2.931,3.133h52.752c1.62,0,2.931-1.402,2.931-3.133
			c0-1.438-0.915-2.688-2.221-3.039l-18.293-2.542v-3.809h29.333c4.843-0.015,8.765-4.214,8.765-9.396V9.398
			C93.78,4.207,89.842,0,84.988,0z M87.919,72.054c0,1.729-1.317,3.133-2.931,3.133H58.613H35.167H8.792
			c-1.62,0-2.931-1.404-2.931-3.133V9.398c0-1.729,1.311-3.133,2.931-3.133h76.197c1.613,0,2.931,1.404,2.931,3.133V72.054z"/>
	</g>
</g>
<g id="Photography" display="none">
	<g id="photo_1_" display="inline">
		<path fill="#FFFFFF" d="M81.275,0H12.504C5.599,0,0,5.26,0,11.747v70.479c0,6.486,5.599,11.746,12.504,11.746h68.771
			c6.906,0,12.505-5.26,12.505-11.746V11.747C93.78,5.26,88.182,0,81.275,0z M87.528,82.226c0,3.234-2.809,5.873-6.253,5.873H12.504
			c-3.446,0-6.252-2.639-6.252-5.873V11.747c0-3.241,2.806-5.874,6.252-5.874h68.771c3.444,0,6.253,2.633,6.253,5.874V82.226z"/>
		<path fill="#FFFFFF" d="M78.149,11.747H15.63c-1.728,0-3.126,1.313-3.126,2.937v52.859c0,1.623,1.398,2.937,3.126,2.937h62.52
			c1.729,0,3.126-1.313,3.126-2.937V14.683C81.275,13.06,79.878,11.747,78.149,11.747z M78.149,14.683v40.728L67.99,45.042
			c-0.598-0.631-1.447-0.992-2.344-0.992c-0.898,0-1.753,0.361-2.345,0.992l-8.138,8.667L30.478,27.422
			c-0.595-0.631-1.447-0.992-2.345-0.992c-0.897,0-1.749,0.361-2.345,0.992L15.63,38.428V14.683H78.149z M15.63,42.874
			l12.503-13.507l25.215,26.849l1.813,1.933l8.634,9.395H15.63V42.874z M67.96,67.542L57.247,55.928l8.399-8.942l12.503,12.859
			v7.697H67.96z"/>
		<path fill="#FFFFFF" d="M59.394,38.176c5.179,0,9.378-3.946,9.378-8.81c0-4.87-4.199-8.81-9.378-8.81
			c-5.181,0-9.379,3.94-9.379,8.81C50.015,34.23,54.213,38.176,59.394,38.176z M59.394,23.493c3.444,0,6.253,2.632,6.253,5.873
			c0,3.235-2.809,5.873-6.253,5.873c-3.448,0-6.253-2.638-6.253-5.873C53.141,26.125,55.945,23.493,59.394,23.493z"/>
	</g>
</g>
<g id="Design" display="none">
	<path id="pen_2_" display="inline" fill="#FFFFFF" d="M86.03,7.609C81.217,2.765,74.878,0,68.63,0
		c-5.27,0-10.122,1.97-13.666,5.536L40.719,20c-0.04,0.04-0.091,0.069-0.137,0.112c-0.023,0.023-0.035,0.055-0.057,0.078
		l0.005,0.006L10.294,50.891c-1.392,1.394-2.403,3.133-2.963,5.029L0.458,81.012C0.449,81.08,0,83.054,0,84.053
		c0,5.699,4.593,10.322,10.258,10.322c1.125,0,3.307-0.541,3.387-0.553l24.811-6.572c1.887-0.564,3.601-1.59,4.99-2.996
		l44.671-45.367C96.24,30.69,95.325,16.958,86.03,7.609z M46.87,70.18c-0.24-2.664-0.983-5.273-2.103-7.751l27.67-27.879
		c1.691,5.386,0.824,11.019-2.886,14.757c-0.023,0.023-0.052,0.038-0.074,0.061l0.039,0.038L46.898,72.377
		C46.904,71.646,46.938,70.925,46.87,70.18z M43.297,59.739c-1.091-1.809-2.332-3.552-3.869-5.098
		c-1.789-1.804-3.841-3.212-5.979-4.401l27.896-28.109c2.188,0.979,4.285,2.373,6.139,4.239c1.582,1.59,2.806,3.37,3.748,5.222
		L43.297,59.739z M30.693,48.846c-2.709-1.1-5.55-1.728-8.396-1.765L44.841,24.19c3.453-3.393,8.478-4.369,13.428-3.131
		L30.693,48.846z M12.199,88.103c-0.32,0.074-1.312,0.328-1.987,0.374c-2.406-0.026-4.358-1.999-4.358-4.424
		c0.034-0.492,0.231-1.345,0.297-1.659l3.082-11.249c3.344-0.093,6.945,1.221,9.775,4.078c2.875,2.895,4.225,6.592,4.078,9.999
		L12.199,88.103z M25.972,84.456c-0.068-3.954-1.669-8.073-4.894-11.316c-3.049-3.078-7.039-4.853-11.02-5.011l2.915-10.64
		c0.211-0.708,0.629-1.405,1.144-2.019c5.871-4.233,14.902-2.983,21.173,3.341c6.637,6.685,7.66,16.475,2.549,22.32
		c-0.337,0.179-0.68,0.352-1.051,0.464L25.972,84.456z M83.973,34.72l-4.927,5.005c0-0.665,0.08-1.308,0.017-1.987
		c-0.515-5.706-3.155-11.224-7.442-15.538c-4.768-4.807-11.089-7.566-17.348-7.583l4.848-4.925c2.424-2.439,5.806-3.793,9.51-3.793
		c4.71,0,9.546,2.146,13.268,5.884c3.492,3.514,5.572,7.877,5.87,12.292C88.042,28.196,86.692,31.975,83.973,34.72z"/>
</g>
<g id="Paintball" display="none">
	<g display="inline">
		<path id="world_1_" fill="#FFFFFF" d="M46.89,6.05C69.408,6.05,87.73,24.37,87.73,46.89c0,22.52-18.322,40.839-40.841,40.839
			S6.05,69.409,6.05,46.89C6.05,24.37,24.371,6.05,46.89,6.05 M46.89,0C20.993,0,0,20.993,0,46.89
			c0,25.896,20.993,46.89,46.89,46.89c25.898,0,46.891-20.993,46.891-46.89C93.78,20.993,72.788,0,46.89,0L46.89,0z"/>
		<path fill="#FFFFFF" d="M19.419,46.89c0-19.516,13.354-35.569,30.495-37.59c-1.204-0.145-2.422-0.225-3.659-0.225
			c-18.864,0-34.155,16.931-34.155,37.814c0,20.883,15.291,37.813,34.155,37.813c1.236,0,2.455-0.079,3.659-0.224
			C32.773,82.458,19.419,66.405,19.419,46.89z"/>
	</g>
</g>
<g id="Branding" display="none">
	<g id="bulb_2_" display="inline">
		<path fill="#FFFFFF" d="M46.891,0C29.065,0,14.616,14.449,14.616,32.273c0,11.828,10.822,24.359,14.761,35.368
			c5.875,16.42,5.228,26.245,17.514,26.245c12.469,0,11.632-9.782,17.511-26.177c3.955-11.031,14.762-23.701,14.762-35.437
			C79.164,14.449,64.713,0,46.891,0z M54.495,79.732l-14.549,1.819c-0.516-1.504-1.077-3.264-1.753-5.556
			c-0.006-0.028-0.017-0.063-0.023-0.092l18.154-2.27c-0.258,0.868-0.532,1.779-0.773,2.594
			C55.166,77.546,54.822,78.692,54.495,79.732z M37.315,73.079c-0.533-1.765-1.134-3.627-1.805-5.599h22.784
			c-0.361,1.055-0.723,2.109-1.031,3.106L37.315,73.079z M46.891,88.019c-2.974,0-4.344-0.341-5.862-3.668l12.435-1.556
			C51.664,87.646,50.352,88.019,46.891,88.019z M60.598,61.613H33.214c-1.461-3.166-3.214-6.338-4.945-9.438
			c-3.828-6.851-7.785-13.936-7.785-19.901c0-14.561,11.845-26.406,26.407-26.406c14.561,0,26.406,11.845,26.406,26.406
			c0,5.919-3.96,13.045-7.793,19.936C63.79,55.301,62.048,58.461,60.598,61.613z"/>
		<path fill="#FFFFFF" d="M46.891,14.67c-9.708,0-17.605,7.896-17.605,17.604c0,0.811,0.656,1.467,1.467,1.467
			s1.467-0.656,1.467-1.467c0-8.088,6.58-14.67,14.671-14.67c0.808,0,1.467-0.656,1.467-1.467S47.699,14.67,46.891,14.67z"/>
	</g>
</g>
<g id="Location" display="none">
	<g id="location_2_" display="inline">
		<path fill-rule="evenodd" clip-rule="evenodd" fill="#FFFFFF" d="M46.894,52.007c9.696,0,17.583-7.888,17.583-17.583
			c0-9.696-7.887-17.584-17.583-17.584s-17.585,7.888-17.585,17.584C29.309,44.119,37.197,52.007,46.894,52.007z M46.894,19.77
			c8.082,0,14.653,6.571,14.653,14.653s-6.571,14.653-14.653,14.653s-14.654-6.571-14.654-14.653S38.812,19.77,46.894,19.77z"/>
		<path fill-rule="evenodd" clip-rule="evenodd" fill="#FFFFFF" d="M46.888,0C27.494,0,11.719,15.58,11.719,35.173
			c0,20.518,17.586,41.501,30.406,56.248c0.052,0.058,2.106,2.358,4.654,2.358c0.005,0,0.211,0,0.223,0
			c2.542,0,4.602-2.301,4.648-2.358c12.826-14.747,30.41-35.73,30.41-56.248C82.061,15.58,66.285,0,46.888,0z M47.231,87.574
			c-0.063,0.058-0.241,0.192-0.395,0.289c-0.029-0.083-0.246-0.254-0.378-0.392C35.715,75.114,17.581,54.259,17.581,35.173
			c0-16.161,13.15-29.312,29.307-29.312c16.165,0,29.312,13.15,29.312,29.312C76.199,54.259,58.066,75.114,47.231,87.574z"/>
	</g>
</g>
<g id="Arrow_Left" display="none">
	<path display="inline" fill="#FFFFFF" d="M39.031,86.003c2.375,2.378,6.247,2.378,8.63,0c2.376-2.373,2.376-6.258,0-8.631
		l-24.279-24.28h64.105c3.353,0,6.119-2.739,6.119-6.107c0-3.356-2.741-6.113-6.119-6.113H23.383l24.279-24.273
		c2.376-2.375,2.376-6.254,0-8.632c-1.192-1.188-2.751-1.781-4.326-1.781c-1.574,0-3.106,0.594-4.318,1.781L0,46.984L39.031,86.003z
		"/>
</g>
<g id="Dribbble" display="none">
	<path display="inline" fill="#FFFFFF" d="M46.744,0C20.775,0,0,21.113,0,46.842c0,26.005,20.775,47.129,46.744,47.129
		c25.969,0,47.037-21.108,47.037-47.129C93.78,21.127,72.713,0,46.744,0z M85.984,46.848c-5.189-1.164-10.074-2.022-15.002-2.022
		c-4.036,0-8.366,0.58-12.662,1.445c-0.905-2.019-1.768-4.341-2.626-6.36c8.087-3.732,16.18-8.974,23.383-15.034
		C83.39,31.531,85.984,39.042,85.984,46.848z M46.744,7.817c10.392,0,19.915,4.043,27.128,10.984
		c-6.643,5.787-13.852,10.409-21.645,13.885C47.892,24.585,42.708,16.782,36.65,9.26C40.109,8.405,43.28,7.817,46.744,7.817z
		 M28.852,12.154c6.348,7.525,11.832,15.356,16.181,23.432c-10.389,3.731-21.066,5.495-31.741,5.495c-2.017,0-3.47,0-5.19,0
		C10.101,28.632,17.892,17.944,28.852,12.154z M7.793,48.862c2.015,0,3.753,0.307,5.479,0.307c11.831,0,23.66-2.306,35.207-6.361
		c0.577,1.738,1.443,3.739,2.31,5.495c-13.269,4.611-24.821,13.274-32.606,25.142C11.829,66.797,8.077,58.119,7.793,48.862z
		 M46.744,86.175c-8.077,0-15.866-2.612-22.792-7.228c7.217-10.988,17.315-19.088,29.436-23.132
		c2.884,8.964,4.944,18.504,5.8,28.329C55.111,85.598,51.068,86.175,46.744,86.175z M66.658,80.674
		c-1.155-9.237-2.883-18.177-5.773-26.856c3.463-0.58,6.898-0.866,10.074-0.866c4.619,0,9.229,0.55,14.139,1.731
		C82.812,65.638,76.18,75.176,66.658,80.674z"/>
</g>
<g id="linkedin" display="none">
	<path display="inline" fill="#FFFFFF" d="M76.196,0H17.584C7.876,0,0,7.892,0,17.62v58.733c0,9.725,7.876,17.619,17.584,17.619
		h58.612c9.709,0,17.584-7.895,17.584-17.619V17.62C93.78,7.875,85.905,0,76.196,0z M23.142,15.658c4.215,0,7.567,3.43,7.567,7.588
		c0,2.082-0.733,3.852-2.198,5.32c-1.466,1.532-3.234,2.266-5.369,2.266c-4.156,0-7.507-3.43-7.507-7.588
		C15.635,19.085,18.986,15.658,23.142,15.658z M31.259,76.353c0,1.037-0.917,1.955-1.953,1.955H17.584
		c-1.037,0-1.953-0.918-1.953-1.955V37.195c0-1.041,0.917-1.956,1.953-1.956h11.721c1.037,0,1.953,0.915,1.953,1.956V76.353z
		 M78.156,76.353c0,1.037-0.912,1.955-1.96,1.955H64.841c-1.163,0-2.317-0.918-2.317-1.955V52.306c0-4.158-0.797-5.874-4.765-5.874
		c-4.642,0-6.959,2.876-6.959,8.569v21.354c0,1.038-0.796,1.962-1.769,1.962h-11.11c-1.162,0-2.75-0.918-2.75-1.962V36.952
		c0-1.042,1.585-1.715,2.75-1.715h10.744c1.403,0,2.135,0.734,2.135,2.203c0.062-0.184,0.366-0.43,0.852-0.734
		c2.749-1.835,5.982-2.756,9.646-2.756c10.503,0,16.858,5.446,16.858,15.785V76.353z"/>
</g>
<g id="Mail" display="none">
	<g display="inline">
		<g>
			<path fill="#FFFFFF" d="M49.578,51.881l39.108-39.814c-0.666-0.181-1.36-0.327-2.089-0.327H7.44
				c-0.729,0-1.409,0.146-2.095,0.327l39.114,39.814C45.805,53.27,48.204,53.27,49.578,51.881z"/>
		</g>
		<g>
			<path fill="#FFFFFF" d="M54.918,57.312c-2.141,2.143-4.958,3.359-7.908,3.359c-2.996,0-5.816-1.188-7.922-3.359L0.164,17.708
				C0.086,18.219,0,18.75,0,19.274V74.68c0,4.166,3.326,7.553,7.406,7.553h79.149c4.1,0,7.417-3.387,7.417-7.553V19.277
				c0-0.554-0.061-1.053-0.181-1.564L54.918,57.312z"/>
		</g>
	</g>
</g>
<g id="Arrow_Right" display="none">
	<path display="inline" fill="#FFFFFF" d="M54.58,7.966c-2.383-2.375-6.247-2.375-8.631,0c-2.384,2.378-2.384,6.26,0,8.635
		l24.278,24.286H6.104C2.734,40.887,0,43.632,0,46.994c0,3.362,2.734,6.108,6.104,6.108h64.123L45.946,77.387
		c-2.385,2.377-2.385,6.253,0,8.621c1.192,1.193,2.752,1.779,4.316,1.779c1.565,0,3.123-0.586,4.326-1.779l39.022-39.014
		L54.58,7.966z"/>
</g>
<g id="DT" display="none">
	<g>
		<path display="inline" fill="#35495E" d="M46.896,8.827c2.189,1.135,4.271,2.445,6.221,3.925h36.932V43.06h-9.812v38.159H53.118
			c-1.949,1.48-4.032,2.792-6.222,3.926h37.154V46.985h9.921V8.827H46.896z"/>
		<path display="inline" fill="#35495E" d="M58.751,46.985c0-21.042-17.116-38.158-38.16-38.158h-8.523H4.1H0v76.317h4.1h7.968
			h8.523C41.635,85.145,58.751,68.028,58.751,46.985z M20.591,81.219h-8.523H4.1H3.925V12.752H4.1h7.968h8.523
			c9.157,0,17.771,3.488,24.204,10.03c6.541,6.433,10.031,15.045,10.031,24.203c0,9.159-3.49,17.771-10.031,24.203
			C38.362,77.731,29.749,81.219,20.591,81.219z"/>
	</g>
</g>
<g id="Dribbble_SM" display="none">
	<g id="dribbble" display="inline">
		<path fill="#35495E" d="M49.271,47.797c-0.55-1.061-1.059-2.3-1.409-3.367c-7.058,2.478-14.287,3.875-21.513,3.875
			c-1.056,0-2.138-0.184-3.357-0.184c0.18,5.69,2.501,10.952,6.347,15.016C34.109,55.916,41.161,50.625,49.271,47.797z"/>
		<path fill="#35495E" d="M32.873,66.523c4.233,2.828,8.992,4.418,13.926,4.418c2.644,0,5.118-0.351,7.59-1.239
			c-0.532-6.033-1.77-11.834-3.489-17.315C43.45,54.854,37.285,59.802,32.873,66.523z"/>
		<path fill="#35495E" d="M63.375,29.771c-4.41-4.222-10.223-6.71-16.577-6.71c-2.115,0-4.053,0.35-6.164,0.917
			c3.703,4.586,6.874,9.36,9.518,14.305C54.912,36.131,59.315,33.304,63.375,29.771z"/>
		<path fill="#35495E" d="M45.742,40.011c-2.644-4.95-5.993-9.722-9.873-14.316c-6.701,3.539-11.46,10.086-12.696,17.68
			c1.039,0,1.941,0,3.174,0C32.873,43.367,39.395,42.314,45.742,40.011z"/>
		<path fill="#35495E" d="M55.441,51.144c1.769,5.309,2.82,10.783,3.523,16.441c5.817-3.364,9.873-9.188,11.295-15.905
			c-2.993-0.671-5.801-1.038-8.61-1.038C59.669,50.625,57.559,50.789,55.441,51.144z"/>
		<path fill="#35495E" d="M46.89,0C20.992,0,0,21.038,0,46.986c0,25.954,20.992,46.986,46.89,46.986
			c25.894,0,46.89-21.032,46.89-46.986C93.78,21.038,72.784,0,46.89,0z M46.798,75.712c-15.867,0-28.551-12.91-28.551-28.815
			c0-15.721,12.684-28.621,28.551-28.621c15.873,0,28.757,12.911,28.757,28.621C75.537,62.808,62.671,75.712,46.798,75.712z"/>
		<path fill="#35495E" d="M52.27,42.676c0.533,1.233,1.051,2.629,1.587,3.854c2.642-0.542,5.294-0.889,7.751-0.889
			c2.992,0,5.996,0.55,9.171,1.239c0-4.772-1.585-9.361-4.228-13.396C62.139,37.184,57.204,40.367,52.27,42.676z"/>
	</g>
</g>
<g id="Mail_SM" display="none">
	<path display="inline" fill="#35495E" d="M46.986,0C21.036,0,0,21.037,0,46.986c0,25.951,21.036,46.986,46.986,46.986
		c25.951,0,46.986-21.035,46.986-46.986C93.972,21.037,72.937,0,46.986,0z M30.442,31.817h32.923c0.304,0,0.592,0.063,0.869,0.141
		L47.968,49.093c-0.571,0.597-1.568,0.597-2.129,0L29.571,31.958C29.856,31.88,30.14,31.817,30.442,31.817z M66.433,58.906
		c0,1.791-1.38,3.248-3.085,3.248h-32.92c-1.697,0-3.08-1.457-3.08-3.248V35.06c0-0.226,0.036-0.454,0.068-0.674l16.189,17.046
		c0.876,0.934,2.049,1.445,3.295,1.445c1.227,0,2.398-0.523,3.289-1.445l16.168-17.044c0.05,0.221,0.075,0.436,0.075,0.674V58.906z"
		/>
</g>
<g id="Instagram" display="none">
	<path display="inline" fill="#35495E" d="M46.939,0C21.011,0,0,21.038,0,46.986c0,25.962,21.011,46.986,46.939,46.986
		c25.925,0,46.939-21.023,46.939-46.986C93.878,21.043,72.864,0,46.939,0z M66.962,60.037c0,4.118-3.36,7.519-7.515,7.519h-25
		c-4.148,0-7.515-3.366-7.515-7.519v-12.3h9.228c1.364,4.711,5.687,8.139,10.821,8.139c5.128,0,9.471-3.471,10.818-8.139h9.226
		L66.962,60.037L66.962,60.037z M40.685,44.594c0-3.458,2.796-6.263,6.257-6.263c3.452,0,6.26,2.805,6.26,6.263
		c0,3.487-2.808,6.292-6.26,6.292C43.481,50.872,40.685,48.061,40.685,44.594z M66.962,41.468h-9.228
		c-1.364-4.711-5.688-8.139-10.821-8.139s-9.471,3.47-10.818,8.139h-9.216V34.97c0-4.147,3.363-7.525,7.518-7.525H59.41
		c4.14,0,7.515,3.366,7.515,7.525L66.962,41.468L66.962,41.468z"/>
</g>
<g id="LinkedIn_SM" display="none">
	<g display="inline">
		<path fill="#35495E" d="M34.596,38.663c1.104,0,2.015-0.378,2.747-1.164c0.792-0.774,1.158-1.651,1.158-2.753
			c0-2.142-1.761-3.917-3.899-3.917c-2.133,0-3.862,1.772-3.862,3.917C30.731,36.906,32.458,38.663,34.596,38.663z"/>
		<path fill="#35495E" d="M37.775,40.943h-6.034c-0.54,0-1.009,0.447-1.009,1.01v20.201c0,0.547,0.469,1.018,1.009,1.018h6.034
			c0.541,0,1.015-0.471,1.015-1.018V41.953C38.784,41.405,38.312,40.943,37.775,40.943z"/>
		<path fill="#35495E" d="M54.255,40.278c-1.891,0-3.557,0.461-4.966,1.408c-0.26,0.16-0.414,0.286-0.428,0.378
			c0-0.76-0.415-1.152-1.106-1.152h-5.551c-0.592,0-1.4,0.333-1.4,0.9v20.321c0,0.551,0.794,1.009,1.4,1.009h5.729
			c0.506,0,0.915-0.455,0.915-1.009V51.121c0-2.937,1.186-4.417,3.596-4.417c2.047,0,2.461,0.883,2.461,3.011v12.418
			c0,0.551,0.593,1.009,1.187,1.009h5.854c0.534,0,1.009-0.455,1.009-1.009v-13.74C62.938,43.074,59.659,40.278,54.255,40.278z"/>
		<path fill="#35495E" d="M46.833,0C20.964,0,0,21.038,0,46.986c0,25.961,20.964,46.986,46.833,46.986
			c25.867,0,46.833-21.024,46.833-46.986C93.667,21.043,72.7,0,46.833,0z M70.988,62.146c0,5.013-4.054,9.093-9.057,9.093H31.738
			c-5.002,0-9.064-4.08-9.064-9.093V31.853c0-5.013,4.062-9.1,9.064-9.1h30.194c5.003,0,9.057,4.086,9.057,9.1V62.146z"/>
	</g>
</g>
<g id="Facebook" display="none">
	<path display="inline" fill="#35495E" d="M46.891,0C20.99,0,0,21.024,0,46.986c0,25.954,20.99,46.986,46.89,46.986
		c25.896,0,46.89-21.032,46.89-46.986C93.78,21.024,72.786,0,46.891,0z M57.783,46.978h-7v25.396H40.302V46.978h-5.243V38.23h5.243
		v-5.26c0-7.161,2.954-11.408,11.356-11.408h7.021v8.75h-4.341c-3.28,0-3.492,1.222-3.492,3.49l-0.017,4.385h7.934L57.783,46.978z"
		/>
</g>
<g id="Twitter">
	<path fill="#35495E" d="M46.889,0C20.993,0,0,21.038,0,46.986c0,25.961,20.993,46.986,46.889,46.986
		c25.909,0,46.892-21.024,46.892-46.986C93.78,21.044,72.778,0,46.889,0z M76.319,32.71c-1.32,2.143-3.114,4.101-5.49,5.842v1.018
		c0.182,9.344-4.459,21.475-15.246,28.328c-5.4,3.45-11.419,5.177-18.136,5.177c-5.432,0-10.521-1.276-15.332-3.73
		c-1.291-0.675-2.209-1.186-2.647-1.532c-0.304-0.246-0.438-0.521-0.438-0.817c0-0.536,0.438-0.98,0.981-0.98
		c0.278,0,0.736,0.046,1.351,0.063c0.612,0.06,1.07,0.065,1.38,0.065c4.187,0,8.004-1.046,11.514-3.241
		c-4.213-0.98-7.619-4.109-8.97-8.259c-0.028-0.164-0.063-0.281-0.063-0.312c0-0.493,0.429-0.943,0.924-0.943
		c0.092,0,0.246,0.046,0.427,0.062c0.183,0.046,0.306,0.062,0.366,0.062c-3.649-2.261-5.982-6.275-5.982-10.543
		c0-0.619,0.553-1.112,1.162-1.112c0.206,0,0.55,0.126,1.067,0.312c0.549,0.247,0.822,0.43,0.916,0.43
		c-1.892-2.265-2.825-4.887-2.825-7.883c0-2.108,0.613-4.698,1.654-6.24c0.206-0.324,0.45-0.508,0.793-0.508
		c0.306,0,0.612,0.141,0.795,0.387c1.551,1.73,2.662,2.874,3.36,3.513c5.032,4.577,11.477,7.348,18.188,7.924
		c-0.088-0.428-0.121-0.915-0.121-1.514c0-6.854,5.558-12.42,12.396-12.42c3.356,0,6.228,1.164,8.643,3.49
		c1.93-0.424,4.094-1.288,6.414-2.51c0.166-0.06,0.312-0.163,0.495-0.163c0.529,0,0.993,0.459,0.993,0.98
		c0,0.987-1.488,3.487-2.427,4.586c0.292-0.075,1.405-0.548,2.256-0.815c0.426-0.177,0.669-0.212,0.732-0.212
		c0.55,0,0.984,0.459,0.984,0.987C76.482,32.392,76.419,32.57,76.319,32.71z"/>
</g>
</svg>
