<?xml version="1.0" encoding="utf-8"?>
<!-- Generator: Adobe Illustrator 16.0.4, SVG Export Plug-In . SVG Version: 6.00 Build 0)  -->
<!DOCTYPE svg PUBLIC "-//W3C//DTD SVG 1.1//EN" "http://www.w3.org/Graphics/SVG/1.1/DTD/svg11.dtd">
<svg version="1.1" xmlns="http://www.w3.org/2000/svg" xmlns:xlink="http://www.w3.org/1999/xlink" x="0px" y="0px" width="93.78px"
	 height="93.972px" viewBox="0 0 93.78 93.972" enable-background="new 0 0 93.78 93.972" xml:space="preserve">
<g id="DT">
	<g>
		<path fill="#FFFFFF" d="M46.896,8.827c2.189,1.135,4.271,2.445,6.221,3.925h36.932V43.06h-9.812v38.159H53.118
			c-1.949,1.48-4.032,2.792-6.222,3.926h37.154V46.985h9.921V8.827H46.896z"/>
		<path fill="#FFFFFF" d="M58.751,46.985c0-21.042-17.116-38.158-38.16-38.158h-8.523H4.1H0v76.317h4.1h7.968h8.523
			C41.635,85.145,58.751,68.028,58.751,46.985z M20.591,81.219h-8.523H4.1H3.925V12.752H4.1h7.968h8.523
			c9.157,0,17.771,3.488,24.204,10.03c6.541,6.433,10.031,15.045,10.031,24.203c0,9.159-3.49,17.771-10.031,24.203
			C38.362,77.731,29.749,81.219,20.591,81.219z"/>
	</g>
</g>
</svg>
